<mxfile host="65bd71144e">
    <diagram id="8EwZzoi7HS3x6keYxVse" name="Page-1">
        <mxGraphModel dx="478" dy="430" grid="1" gridSize="10" guides="1" tooltips="1" connect="1" arrows="1" fold="1" page="1" pageScale="1" pageWidth="850" pageHeight="1100" math="0" shadow="0">
            <root>
                <mxCell id="0"/>
                <mxCell id="1" parent="0"/>
                <mxCell id="2" value="Inicio&amp;nbsp;" style="whiteSpace=wrap;html=1;aspect=fixed;" vertex="1" parent="1">
                    <mxGeometry x="200" y="110" width="80" height="80" as="geometry"/>
                </mxCell>
                <mxCell id="3" value="" style="endArrow=classic;html=1;" edge="1" parent="1">
                    <mxGeometry width="50" height="50" relative="1" as="geometry">
                        <mxPoint x="239.5" y="190" as="sourcePoint"/>
                        <mxPoint x="239.5" y="260" as="targetPoint"/>
                    </mxGeometry>
                </mxCell>
                <mxCell id="4" value="&lt;font style=&quot;font-size: 8px&quot;&gt;Se tiene un problema a solucionar&lt;/font&gt;" style="shape=manualInput;whiteSpace=wrap;html=1;" vertex="1" parent="1">
                    <mxGeometry x="200" y="250" width="80" height="80" as="geometry"/>
                </mxCell>
                <mxCell id="5" value="" style="endArrow=classic;html=1;fontSize=8;exitX=0.5;exitY=1;exitDx=0;exitDy=0;" edge="1" parent="1" source="4">
                    <mxGeometry width="50" height="50" relative="1" as="geometry">
                        <mxPoint x="220" y="360" as="sourcePoint"/>
                        <mxPoint x="240" y="400" as="targetPoint"/>
                    </mxGeometry>
                </mxCell>
                <mxCell id="6" value="Se busca un proveedor que brinde el servicio" style="whiteSpace=wrap;html=1;aspect=fixed;fontSize=8;" vertex="1" parent="1">
                    <mxGeometry x="200" y="400" width="80" height="80" as="geometry"/>
                </mxCell>
                <mxCell id="13" style="edgeStyle=none;html=1;exitX=0;exitY=0;exitDx=0;exitDy=0;fontSize=8;" edge="1" parent="1" source="8">
                    <mxGeometry relative="1" as="geometry">
                        <mxPoint x="180" y="520" as="targetPoint"/>
                    </mxGeometry>
                </mxCell>
                <mxCell id="8" value="Se ven los requerimientos que esten&#10;alineados a los requerimientos de&#10;sigma" style="swimlane;fontStyle=0;childLayout=stackLayout;horizontal=1;startSize=26;fillColor=none;horizontalStack=0;resizeParent=1;resizeParentMax=0;resizeLast=0;collapsible=1;marginBottom=0;fontSize=8;" vertex="1" parent="1">
                    <mxGeometry x="180" y="530" width="140" height="104" as="geometry"/>
                </mxCell>
                <mxCell id="9" value="Infraestructura" style="text;strokeColor=none;fillColor=none;align=left;verticalAlign=top;spacingLeft=4;spacingRight=4;overflow=hidden;rotatable=0;points=[[0,0.5],[1,0.5]];portConstraint=eastwest;fontSize=8;" vertex="1" parent="8">
                    <mxGeometry y="26" width="140" height="26" as="geometry"/>
                </mxCell>
                <mxCell id="10" value="Servicios de soporte" style="text;strokeColor=none;fillColor=none;align=left;verticalAlign=top;spacingLeft=4;spacingRight=4;overflow=hidden;rotatable=0;points=[[0,0.5],[1,0.5]];portConstraint=eastwest;fontSize=8;" vertex="1" parent="8">
                    <mxGeometry y="52" width="140" height="26" as="geometry"/>
                </mxCell>
                <mxCell id="11" value="Costo" style="text;strokeColor=none;fillColor=none;align=left;verticalAlign=top;spacingLeft=4;spacingRight=4;overflow=hidden;rotatable=0;points=[[0,0.5],[1,0.5]];portConstraint=eastwest;fontSize=8;" vertex="1" parent="8">
                    <mxGeometry y="78" width="140" height="26" as="geometry"/>
                </mxCell>
                <mxCell id="12" value="" style="endArrow=classic;html=1;fontSize=8;entryX=0.433;entryY=-0.019;entryDx=0;entryDy=0;exitX=0.5;exitY=1;exitDx=0;exitDy=0;entryPerimeter=0;" edge="1" parent="1" source="6" target="8">
                    <mxGeometry width="50" height="50" relative="1" as="geometry">
                        <mxPoint x="220" y="510" as="sourcePoint"/>
                        <mxPoint x="270" y="460" as="targetPoint"/>
                    </mxGeometry>
                </mxCell>
                <mxCell id="15" value="Si cumple los requerimientos" style="rhombus;whiteSpace=wrap;html=1;fontSize=8;" vertex="1" parent="1">
                    <mxGeometry x="200" y="680" width="80" height="80" as="geometry"/>
                </mxCell>
                <mxCell id="16" value="" style="endArrow=classic;html=1;fontSize=8;exitX=0.414;exitY=1.128;exitDx=0;exitDy=0;exitPerimeter=0;" edge="1" parent="1" source="11" target="15">
                    <mxGeometry width="50" height="50" relative="1" as="geometry">
                        <mxPoint x="220" y="580" as="sourcePoint"/>
                        <mxPoint x="270" y="530" as="targetPoint"/>
                    </mxGeometry>
                </mxCell>
                <mxCell id="18" value="" style="edgeStyle=segmentEdgeStyle;endArrow=classic;html=1;fontSize=8;entryX=0;entryY=0.5;entryDx=0;entryDy=0;exitX=0;exitY=0.5;exitDx=0;exitDy=0;startArrow=none;" edge="1" parent="1" source="19" target="6">
                    <mxGeometry width="50" height="50" relative="1" as="geometry">
                        <mxPoint x="220" y="750" as="sourcePoint"/>
                        <mxPoint x="270" y="700" as="targetPoint"/>
                        <Array as="points">
                            <mxPoint x="130" y="745"/>
                            <mxPoint x="130" y="410"/>
                            <mxPoint x="180" y="410"/>
                            <mxPoint x="180" y="440"/>
                        </Array>
                    </mxGeometry>
                </mxCell>
                <mxCell id="19" value="false" style="text;html=1;strokeColor=none;fillColor=none;align=center;verticalAlign=middle;whiteSpace=wrap;rounded=0;fontSize=8;" vertex="1" parent="1">
                    <mxGeometry x="120" y="730" width="60" height="30" as="geometry"/>
                </mxCell>
                <mxCell id="20" value="" style="edgeStyle=segmentEdgeStyle;endArrow=none;html=1;fontSize=8;entryX=0;entryY=0.5;entryDx=0;entryDy=0;exitX=0;exitY=0.5;exitDx=0;exitDy=0;" edge="1" parent="1" source="15" target="19">
                    <mxGeometry width="50" height="50" relative="1" as="geometry">
                        <mxPoint x="200" y="720" as="sourcePoint"/>
                        <mxPoint x="180" y="595" as="targetPoint"/>
                        <Array as="points">
                            <mxPoint x="200" y="710"/>
                            <mxPoint x="170" y="710"/>
                            <mxPoint x="170" y="720"/>
                            <mxPoint x="130" y="720"/>
                            <mxPoint x="130" y="745"/>
                        </Array>
                    </mxGeometry>
                </mxCell>
                <mxCell id="21" value="" style="endArrow=classic;html=1;fontSize=8;exitX=0.5;exitY=1;exitDx=0;exitDy=0;" edge="1" parent="1" source="15" target="22">
                    <mxGeometry width="50" height="50" relative="1" as="geometry">
                        <mxPoint x="210" y="680" as="sourcePoint"/>
                        <mxPoint x="240" y="820" as="targetPoint"/>
                    </mxGeometry>
                </mxCell>
                <mxCell id="22" value="Se contrata al proveedor para que brinde servicio y/o soporte" style="whiteSpace=wrap;html=1;aspect=fixed;fontSize=8;" vertex="1" parent="1">
                    <mxGeometry x="200" y="800" width="80" height="80" as="geometry"/>
                </mxCell>
                <mxCell id="23" value="true" style="text;html=1;strokeColor=none;fillColor=none;align=center;verticalAlign=middle;whiteSpace=wrap;rounded=0;fontSize=8;" vertex="1" parent="1">
                    <mxGeometry x="240" y="760" width="60" height="30" as="geometry"/>
                </mxCell>
            </root>
        </mxGraphModel>
    </diagram>
</mxfile>